# xmcd
#
# Track frame offsets:
#	150
#	19525
#	39515
#	61431
#	80363
#	98269
#	103826
#	123834
#	145176
#	165098
#
# Disc length: 2450 seconds
#
# Revision: 2
# Processed by: cddbd v1.5.2PL0 Copyright (c) Steve Scherf et al.
# Submitted via: EZCDDA 4.3.2
#
DISCID=6b09900a
DTITLE=Macbeth - Superangelic Hate Bringers
DYEAR=1900
DGENRE=
TTITLE0=Don't Pretend
TTITLE1=To My Falling Star
TTITLE2=Without You
TTITLE3=Watch Us Die
TTITLE4=Don't Include Me In Your Dream
TTITLE5=Veils
TTITLE6=H.a.t.e.
TTITLE7=Grey Skies
TTITLE8=Break The Circle
TTITLE9=(The World) In My Mind
EXTD=
EXTT0=
EXTT1=
EXTT2=
EXTT3=
EXTT4=
EXTT5=
EXTT6=
EXTT7=
EXTT8=
EXTT9=
PLAYORDER=
